<svg aria-hidden="true" style="position: absolute; width: 0; height: 0; overflow: hidden;" version="1.1" xmlns="http://www.w3.org/2000/svg" xmlns:xlink="http://www.w3.org/1999/xlink">
<defs>
<symbol id="icon-Arrow" viewBox="0 0 32 32">
<path fill="#1b4332" style="fill: var(--color1, #1b4332)" d="M30.784 10.506l-13.377 13.377c-0.672 0.672-1.761 0.672-2.432 0v0c-0.672-0.672-0.672-1.761 0-2.432l13.377-13.377c0.672-0.672 1.761-0.672 2.432 0v0c0.672 0.672 0.672 1.761 0 2.432z"></path>
<path fill="#1b4332" style="fill: var(--color1, #1b4332)" d="M17.026 21.45l-13.377-13.377c-0.672-0.672-1.761-0.672-2.432 0v0c-0.672 0.672-0.672 1.761 0 2.432l13.377 13.377c0.672 0.672 1.761 0.672 2.432 0v0c0.672-0.672 0.672-1.761 0-2.432z"></path>
</symbol>
<symbol id="icon-Calendar" viewBox="0 0 32 32">
<path fill="#fff" style="fill: var(--color2, #fff)" d="M30.058 3.761h-6.107v-2.902c0-0.351-0.259-0.636-0.578-0.636s-0.578 0.284-0.578 0.636v2.902h-14.823v-2.902c0-0.351-0.259-0.636-0.578-0.636s-0.578 0.284-0.578 0.636v2.902h-5.448c-0.319 0-0.578 0.284-0.578 0.636v26.47c0 0.351 0.259 0.636 0.578 0.636h28.69c0.319 0 0.578-0.285 0.578-0.636v-26.47c0-0.351-0.259-0.636-0.578-0.636zM29.48 30.231h-27.534v-25.198h4.87v1.925c0 0.351 0.259 0.636 0.578 0.636s0.578-0.284 0.578-0.636v-1.925h14.823v1.925c0 0.351 0.259 0.636 0.578 0.636s0.578-0.284 0.578-0.636v-1.925h5.529v25.198z"></path>
<path fill="#fff" style="fill: var(--color2, #fff)" d="M23.766 21.943l-1.95-2.146c-0.226-0.249-0.592-0.249-0.817 0s-0.226 0.651 0 0.899l1.95 2.146-1.95 2.146c-0.226 0.248-0.226 0.651 0 0.899 0.113 0.124 0.261 0.186 0.409 0.186s0.296-0.062 0.409-0.186l1.95-2.146 1.95 2.146c0.113 0.124 0.261 0.186 0.409 0.186s0.296-0.062 0.409-0.186c0.226-0.248 0.226-0.651 0-0.899l-1.95-2.146 1.95-2.146c0.226-0.248 0.226-0.651 0-0.899s-0.591-0.249-0.817 0l-1.951 2.146z"></path>
<path fill="#fff" style="fill: var(--color2, #fff)" d="M9.527 11.021h-3.564c-0.319 0-0.578 0.284-0.578 0.636v3.92c0 0.351 0.259 0.636 0.578 0.636h3.564c0.319 0 0.578-0.285 0.578-0.636v-3.92c0-0.351-0.259-0.636-0.578-0.636zM8.949 14.941h-2.408v-2.648h2.408v2.648z"></path>
<path fill="#fff" style="fill: var(--color2, #fff)" d="M17.648 11.021h-3.563c-0.319 0-0.578 0.284-0.578 0.636v3.92c0 0.351 0.259 0.636 0.578 0.636h3.563c0.319 0 0.578-0.285 0.578-0.636v-3.92c0-0.351-0.259-0.636-0.578-0.636zM17.070 14.941h-2.407v-2.648h2.407v2.648z"></path>
<path fill="#fff" style="fill: var(--color2, #fff)" d="M9.527 20.038h-3.564c-0.319 0-0.578 0.285-0.578 0.636v3.92c0 0.351 0.259 0.636 0.578 0.636h3.564c0.319 0 0.578-0.285 0.578-0.636v-3.92c0-0.351-0.259-0.636-0.578-0.636zM8.949 23.958h-2.408v-2.648h2.408v2.648z"></path>
<path fill="#fff" style="fill: var(--color2, #fff)" d="M17.648 20.038h-3.563c-0.319 0-0.578 0.285-0.578 0.636v3.92c0 0.351 0.259 0.636 0.578 0.636h3.563c0.319 0 0.578-0.285 0.578-0.636v-3.92c0-0.351-0.259-0.636-0.578-0.636zM17.070 23.958h-2.407v-2.648h2.407v2.648z"></path>
<path fill="#fff" style="fill: var(--color2, #fff)" d="M21.834 11.021c-0.319 0-0.578 0.284-0.578 0.636v3.92c0 0.351 0.259 0.636 0.578 0.636h3.564c0.319 0 0.578-0.285 0.578-0.636v-3.92c0-0.351-0.259-0.636-0.578-0.636h-3.564zM24.82 14.941h-2.408v-2.648h2.408v2.648z"></path>
</symbol>
<symbol id="icon-Clock" viewBox="0 0 32 32">
<path fill="none" stroke="#1b4332" style="stroke: var(--color1, #1b4332)" stroke-linejoin="round" stroke-linecap="round" stroke-miterlimit="4" stroke-width="1.1429" d="M16 28c6.627 0 12-5.373 12-12s-5.373-12-12-12c-6.627 0-12 5.373-12 12s5.373 12 12 12z"></path>
<path fill="none" stroke="#1b4332" style="stroke: var(--color1, #1b4332)" stroke-linejoin="round" stroke-linecap="round" stroke-miterlimit="4" stroke-width="1.1429" d="M16 9v7h7"></path>
</symbol>
<symbol id="icon-Facebook" viewBox="0 0 32 32">
<path fill="none" stroke="#1b4332" style="stroke: var(--color1, #1b4332)" stroke-linejoin="round" stroke-linecap="round" stroke-miterlimit="4" stroke-width="1" d="M16 28c6.627 0 12-5.373 12-12s-5.373-12-12-12c-6.627 0-12 5.373-12 12s5.373 12 12 12z"></path>
<path fill="none" stroke="#1b4332" style="stroke: var(--color1, #1b4332)" stroke-linejoin="round" stroke-linecap="round" stroke-miterlimit="4" stroke-width="1" d="M21 11h-2c-0.796 0-1.559 0.316-2.121 0.879s-0.879 1.326-0.879 2.121v14"></path>
<path fill="none" stroke="#1b4332" style="stroke: var(--color1, #1b4332)" stroke-linejoin="round" stroke-linecap="round" stroke-miterlimit="4" stroke-width="1" d="M12 18h8"></path>
</symbol>
<symbol id="icon-Instagram" viewBox="0 0 32 32">
<path fill="none" stroke="#1b4332" style="stroke: var(--color1, #1b4332)" stroke-linejoin="round" stroke-linecap="round" stroke-miterlimit="4" stroke-width="0.8889" d="M16 21c2.761 0 5-2.239 5-5s-2.239-5-5-5c-2.761 0-5 2.239-5 5s2.239 5 5 5z"></path>
<path fill="none" stroke="#1b4332" style="stroke: var(--color1, #1b4332)" stroke-linejoin="round" stroke-linecap="round" stroke-miterlimit="4" stroke-width="0.8889" d="M21.5 4.5h-11c-3.314 0-6 2.686-6 6v11c0 3.314 2.686 6 6 6h11c3.314 0 6-2.686 6-6v-11c0-3.314-2.686-6-6-6z"></path>
<path fill="#1b4332" style="fill: var(--color1, #1b4332)" d="M22.5 10.5c0.552 0 1-0.448 1-1s-0.448-1-1-1c-0.552 0-1 0.448-1 1s0.448 1 1 1z"></path>
</symbol>
<symbol id="icon-Location" viewBox="0 0 32 32">
<path fill="none" stroke="#1b4332" style="stroke: var(--color1, #1b4332)" stroke-linejoin="round" stroke-linecap="round" stroke-miterlimit="4" stroke-width="1.1852" d="M16 17c2.209 0 4-1.791 4-4s-1.791-4-4-4-4 1.791-4 4c0 2.209 1.791 4 4 4z"></path>
<path fill="none" stroke="#1b4332" style="stroke: var(--color1, #1b4332)" stroke-linejoin="round" stroke-linecap="round" stroke-miterlimit="4" stroke-width="1.1852" d="M26 13c0 9-10 16-10 16s-10-7-10-16c0-2.652 1.054-5.196 2.929-7.071s4.419-2.929 7.071-2.929c2.652 0 5.196 1.054 7.071 2.929s2.929 4.419 2.929 7.071v0z"></path>
</symbol>
<symbol id="icon-menu" viewBox="0 0 32 32">
<path fill="#fff" style="fill: var(--color2, #fff)" d="M0 6.303h32v1.939h-32v-1.939z"></path>
<path fill="#fff" style="fill: var(--color2, #fff)" d="M0 15.030h32v1.939h-32v-1.939z"></path>
<path fill="#fff" style="fill: var(--color2, #fff)" d="M9.143 23.758h22.857v1.939h-22.857v-1.939z"></path>
</symbol>
<symbol id="icon-Phone" viewBox="0 0 32 32">
<path fill="none" stroke="#1b4332" style="stroke: var(--color1, #1b4332)" stroke-linejoin="round" stroke-linecap="round" stroke-miterlimit="4" stroke-width="1.1852" d="M11.56 15.602c1.037 2.121 2.756 3.832 4.882 4.86 0.155 0.074 0.327 0.106 0.499 0.093s0.337-0.070 0.479-0.167l3.129-2.087c0.138-0.092 0.298-0.149 0.463-0.164s0.333 0.011 0.485 0.077l5.855 2.509c0.199 0.084 0.365 0.231 0.473 0.418s0.153 0.404 0.127 0.619c-0.185 1.448-0.892 2.779-1.987 3.744s-2.505 1.497-3.965 1.497c-4.509 0-8.833-1.791-12.021-4.979s-4.979-7.512-4.979-12.021c0-1.46 0.532-2.87 1.497-3.965s2.296-1.802 3.744-1.987c0.215-0.026 0.432 0.019 0.619 0.127s0.334 0.274 0.418 0.473l2.511 5.86c0.065 0.152 0.091 0.317 0.077 0.481s-0.069 0.322-0.16 0.46l-2.079 3.177c-0.095 0.143-0.151 0.308-0.162 0.479s0.021 0.342 0.095 0.497v0z"></path>
</symbol>
<symbol id="icon-Telegram" viewBox="0 0 32 32">
<path fill="none" stroke="#1b4332" style="stroke: var(--color1, #1b4332)" stroke-linejoin="round" stroke-linecap="round" stroke-miterlimit="4" stroke-width="1" d="M11 16.859l11.24 9.891c0.13 0.114 0.288 0.193 0.457 0.228s0.346 0.026 0.51-0.027c0.165-0.053 0.313-0.148 0.43-0.276s0.199-0.284 0.238-0.452l4.702-20.517c0.041-0.177 0.032-0.362-0.025-0.535s-0.16-0.327-0.298-0.446c-0.138-0.119-0.306-0.198-0.485-0.228s-0.364-0.011-0.533 0.055l-23.070 9.063c-0.201 0.079-0.371 0.221-0.485 0.405s-0.165 0.399-0.146 0.614c0.019 0.215 0.107 0.418 0.252 0.579s0.337 0.271 0.548 0.313l6.664 1.333z"></path>
<path fill="none" stroke="#1b4332" style="stroke: var(--color1, #1b4332)" stroke-linejoin="round" stroke-linecap="round" stroke-miterlimit="4" stroke-width="1" d="M11 16.859l17.014-12.288"></path>
<path fill="none" stroke="#1b4332" style="stroke: var(--color1, #1b4332)" stroke-linejoin="round" stroke-linecap="round" stroke-miterlimit="4" stroke-width="1" d="M16.613 21.799l-3.906 3.906c-0.14 0.14-0.318 0.235-0.512 0.274s-0.395 0.019-0.578-0.057c-0.183-0.076-0.339-0.204-0.449-0.368s-0.168-0.358-0.168-0.556v-8.139"></path>
</symbol>
<symbol id="icon-Viber" viewBox="0 0 32 32">
<path fill="#1b4332" style="fill: var(--color1, #1b4332)" d="M18.5 3h-5.001c-5.238 0-9.499 4.381-9.499 9.767v4.633c0 4.011 2.396 7.615 6 9.083v3.003c0 0.204 0.117 0.388 0.297 0.47 0.065 0.030 0.134 0.044 0.203 0.044 0.121 0 0.242-0.046 0.335-0.133l2.899-2.7h4.766c5.238 0 9.5-4.381 9.5-9.767v-4.633c0-5.386-4.261-9.767-9.499-9.767zM27 17.4c0 4.818-3.813 8.6-8.5 8.6h-5c0.001 0.5-0.908 0.040-0.999 0.126l-1.5 2.2v-2.2c0-0.218-0.502-0.898-0.703-0.97-3.389-1.232-5.298-4.059-5.298-7.757v-4.633c0-4.818 3.813-8.767 8.5-8.767h5.001c4.687 0 8.499 3.948 8.499 8.767v4.633z"></path>
<path fill="#1b4332" style="fill: var(--color1, #1b4332)" d="M22.995 17.279l-3.045-1.887c-0.333-0.207-0.729-0.277-1.117-0.2-0.388 0.078-0.722 0.297-0.939 0.616l-0.143 0.21c-1.318-0.415-2.771-0.946-3.641-3.348l0.36-0.299c0.618-0.513 0.683-1.41 0.146-2.001l-2.382-2.614c-0.179-0.197-0.492-0.217-0.699-0.047l-1.496 1.24c-1.312 1.088-0.699 2.697-0.498 3.226 0.009 0.024 0.020 0.046 0.033 0.069 0.052 0.089 1.294 2.203 3.3 4.152 2.014 1.957 5.65 3.764 5.762 3.817 0.415 0.257 0.882 0.38 1.345 0.38 0.811 0 1.607-0.38 2.082-1.075l1.079-1.585c0.149-0.22 0.083-0.512-0.146-0.655zM21 19c-0.446 0.656-1.139 0.845-1.867 0.397-0.036-0.018-3.602-2.155-5.506-4.005-1.78-1.729-2.966-3.467-3.127-3.735-0.392-1.050-0.365-1.198 0.188-1.657l1.033-1.051 2.147 2.041c0.183 0.2 0.162 0.493-0.047 0.667l-0.608 0.504c-0.148 0.123-0.207 0.317-0.149 0.496 1.037 3.213 3.052 3.844 4.524 4.304l0.215 0.068c0.215 0.069 0.449-0.010 0.572-0.19l0.351-0.516c0.072-0.107 0.183-0.179 0.312-0.205s0.261-0.002 0.373 0.067l2.63 1.629-1.040 1.186z"></path>
</symbol>
</defs>
</svg>
